<svg xmlns="http://www.w3.org/2000/svg" width="49.755" height="48.512" viewBox="0 0 49.755 48.512"><path d="M16.642,39.624c0,.2-.231.361-.522.361-.331.03-.562-.13-.562-.361,0-.2.231-.361.522-.361C16.381,39.233,16.642,39.394,16.642,39.624Zm-3.12-.451c-.07.2.13.431.431.492a.471.471,0,0,0,.622-.2c.06-.2-.13-.431-.431-.522A.515.515,0,0,0,13.522,39.173ZM17.956,39c-.291.07-.492.261-.461.492.03.2.291.331.592.261s.492-.261.461-.461S18.247,38.972,17.956,39Zm6.6-38.44A24.054,24.054,0,0,0,0,25.039,25.149,25.149,0,0,0,17,49.034c1.284.231,1.735-.562,1.735-1.214,0-.622-.03-4.053-.03-6.159,0,0-7.022,1.5-8.5-2.989,0,0-1.144-2.919-2.789-3.671,0,0-2.3-1.575.161-1.545a5.3,5.3,0,0,1,3.872,2.588c2.2,3.872,5.878,2.759,7.313,2.1a5.575,5.575,0,0,1,1.605-3.381c-5.607-.622-11.265-1.434-11.265-11.085a7.6,7.6,0,0,1,2.367-5.908,9.478,9.478,0,0,1,.261-6.811c2.1-.652,6.922,2.708,6.922,2.708a23.7,23.7,0,0,1,12.6,0s4.825-3.371,6.922-2.708a9.473,9.473,0,0,1,.261,6.811c1.605,1.776,2.588,3.16,2.588,5.908,0,9.68-5.908,10.453-11.516,11.085a5.932,5.932,0,0,1,1.705,4.655c0,3.381-.03,7.564-.03,8.386,0,.652.461,1.445,1.735,1.214A24.918,24.918,0,0,0,49.755,25.039C49.755,11.125,38.47.562,24.557.562ZM9.75,35.16c-.13.1-.1.331.07.522.161.16.391.231.522.1.13-.1.1-.331-.07-.522C10.112,35.1,9.881,35.03,9.75,35.16Zm-1.083-.813c-.07.13.03.291.231.391a.3.3,0,0,0,.431-.07c.07-.13-.03-.291-.231-.391C8.9,34.217,8.737,34.247,8.667,34.348Zm3.25,3.571c-.161.13-.1.431.13.622.231.231.522.261.652.1.13-.13.07-.431-.13-.622C12.348,37.789,12.048,37.758,11.917,37.919Zm-1.144-1.475c-.16.1-.16.361,0,.592s.431.331.562.231a.458.458,0,0,0,0-.622C11.195,36.414,10.934,36.314,10.774,36.444Z" transform="translate(0 -0.563)" fill="#fff"/></svg>