<svg xmlns="http://www.w3.org/2000/svg" width="50" height="50" viewBox="0 0 50 50"><path d="M1498-773.5a24.345,24.345,0,0,1-9.536-1.925,24.419,24.419,0,0,1-7.788-5.251,24.418,24.418,0,0,1-5.25-7.788A24.346,24.346,0,0,1,1473.5-798a24.344,24.344,0,0,1,1.925-9.536,24.416,24.416,0,0,1,5.25-7.788,24.419,24.419,0,0,1,7.788-5.251A24.345,24.345,0,0,1,1498-822.5a24.348,24.348,0,0,1,9.537,1.925,24.42,24.42,0,0,1,7.788,5.251,24.421,24.421,0,0,1,5.251,7.788A24.346,24.346,0,0,1,1522.5-798a24.348,24.348,0,0,1-1.925,9.537,24.421,24.421,0,0,1-5.251,7.788,24.42,24.42,0,0,1-7.788,5.251A24.348,24.348,0,0,1,1498-773.5Zm5.06-24.1c2.684,0,2.684,2.544,2.684,4.4v8.093h5.156v-9.132c0-2.649-.349-4.385-1.133-5.63-.965-1.533-2.618-2.279-5.052-2.279a5.452,5.452,0,0,0-4.884,2.684h-.072v-2.267h-4.951V-785.1h5.156v-8.231C1499.963-795.44,1500.331-797.6,1503.059-797.6Zm-16.648-4.129V-785.1h5.162v-16.624ZM1488.99-810a2.993,2.993,0,0,0-2.99,2.99,3.007,3.007,0,0,0,2.99,3.018,3.007,3.007,0,0,0,2.99-3.018A2.993,2.993,0,0,0,1488.99-810Z" transform="translate(-1473 823)" fill="#fff" stroke="#707070" stroke-width="1"/></svg>